<?xml version="1.0" standalone="no"?>
<!DOCTYPE svg PUBLIC "-//W3C//DTD SVG 20010904//EN"
 "http://www.w3.org/TR/2001/REC-SVG-20010904/DTD/svg10.dtd">
<svg version="1.0" xmlns="http://www.w3.org/2000/svg"
 width="300.000000pt" height="300.000000pt" viewBox="0 0 300.000000 300.000000"
 preserveAspectRatio="xMidYMid meet">
<metadata>
Created by potrace 1.12, written by Peter Selinger 2001-2015
</metadata>
<g transform="translate(0.000000,300.000000) scale(0.100000,-0.100000)"
fill="#000000" stroke="none">
<path d="M1330 2615 c-348 -59 -646 -278 -804 -592 -266 -530 -54 -1183 475
-1458 662 -344 1464 61 1584 800 86 525 -232 1044 -742 1210 -159 52 -353 67
-513 40z m252 -314 c32 -12 84 -42 117 -66 l59 -43 80 5 c158 11 303 -63 383
-196 48 -79 59 -117 59 -202 0 -120 -51 -240 -140 -329 l-41 -41 56 -124 c57
-127 60 -152 24 -182 -27 -22 -779 -353 -802 -353 -40 0 -55 20 -120 164 l-64
139 -109 2 c-90 1 -119 6 -167 26 -148 62 -237 190 -237 343 0 151 80 287 204
348 l42 20 11 89 c16 121 56 204 142 290 65 65 124 100 211 125 67 20 221 12
292 -15z"/>
<path d="M1329 2186 c-99 -26 -190 -103 -233 -195 -17 -38 -21 -65 -21 -154 0
-122 -3 -128 -79 -148 -128 -35 -206 -163 -177 -292 31 -142 190 -221 344
-172 93 29 100 23 180 -152 l69 -151 186 85 c103 46 248 111 323 145 l137 61
-51 111 c-27 61 -52 123 -54 138 -5 29 5 42 89 110 87 71 127 198 93 300 -32
100 -107 166 -214 189 -44 9 -65 8 -122 -6 -81 -19 -96 -16 -138 30 -46 51
-98 82 -166 100 -70 18 -104 18 -166 1z m16 -86 c4 -6 -6 -36 -21 -66 -31 -63
-41 -141 -26 -197 10 -37 10 -38 -26 -56 -74 -37 -80 -37 -93 11 -23 87 14
200 92 276 43 42 62 51 74 32z"/>
</g>
</svg>
